<svg width="839" height="492" viewBox="0 0 839 492" fill="none" xmlns="http://www.w3.org/2000/svg">
<path opacity="0.34" d="M483.974 225.935C483.974 225.935 259.138 355.807 248.831 365.015L385.986 458.33L628.275 310.455L483.974 225.935Z" fill="#D1BFF8"/>
<path d="M397.667 136.606L483.424 182.37L292.533 295.063L207.464 248.061L397.667 136.606Z" fill="#2E3666"/>
<path d="M483.424 179.346V261.117L292.533 373.81V292.177L483.424 179.346Z" fill="#66A1F6"/>
<path d="M207.327 245.038V326.672L292.396 373.673V292.039L207.327 245.038Z" fill="#267AF2"/>
<path d="M396.293 119.702L489.746 169.451L287.036 288.741L194.271 237.617L396.293 119.702Z" fill="#C3DAFD"/>
<path d="M489.746 169.589V178.522L287.036 297.674V288.878L489.746 169.589Z" fill="#86B5F8"/>
<path d="M194.271 237.617V246.412L286.899 297.536V288.741L194.271 237.617Z" fill="#4B91F5"/>
<path d="M439.721 395.799L438.622 394.425L615.494 258.094L616.594 259.468L439.721 395.799Z" fill="#86B5F8"/>
<path d="M438.347 365.702L437.934 364.052L614.807 290.115L615.357 291.764L438.347 365.702Z" fill="#86B5F8"/>
<path d="M613.021 294.101L616.456 296.162L619.892 294.101L620.029 255.758L613.021 261.255V294.101Z" fill="#66A1F6"/>
<path d="M612.883 261.53L616.044 259.88L616.594 296.299L613.158 294.101L612.883 261.53Z" fill="#267AF2"/>
<path d="M431.75 396.761L435.186 398.822L438.622 396.761L438.759 358.418L431.613 363.915L431.75 396.761Z" fill="#C3DAFD"/>
<path d="M431.613 364.19L434.774 362.541L435.323 398.96L431.888 396.761L431.613 364.19Z" fill="#267AF2"/>
<path d="M391.758 373.26L395.194 375.322L398.629 373.26L398.767 334.917L391.758 340.415V373.26Z" fill="#C3DAFD"/>
<path d="M391.621 340.689L394.781 339.04L395.331 375.459L391.895 373.26L391.621 340.689Z" fill="#267AF2"/>
<path d="M434.911 360.617L391.483 335.467L576.739 225.523L620.167 250.673L434.911 360.617Z" fill="#C3DAFD"/>
<path d="M620.167 257.819L434.911 367.763V360.617L620.167 250.673V257.819Z" fill="#86B5F8"/>
<path d="M434.911 367.763L391.483 342.613V335.467L434.911 360.617V367.763Z" fill="#4B91F5"/>
<path d="M552.414 211.23L503.764 239.678L552.414 267.851L601.202 239.678L552.414 211.23Z" fill="#FFE08B"/>
<path d="M575.914 252.459L552.414 238.716L528.913 252.459L552.414 266.065L575.914 252.459Z" fill="#FFE08B"/>
<path d="M598.178 239.678L552.414 213.017V238.854L575.914 252.597L598.178 239.678Z" fill="#FFD152"/>
<path d="M552.414 213.017L506.787 239.678L528.913 252.459L552.414 238.716V213.017Z" fill="#FFC118"/>
<path d="M539.358 225.248L553.238 222.912C554.2 222.774 555.025 222.912 555.85 223.324L565.882 229.096C567.531 230.058 566.981 232.532 565.332 233.356L552.414 241.19C549.116 243.251 544.993 243.251 541.694 241.327L532.899 236.242C532.074 235.83 531.799 234.868 532.212 234.044L536.334 226.897L539.358 225.248Z" fill="#C3DAFD"/>
<path d="M553.101 226.485C554.063 226.485 554.888 226.073 554.888 225.385C554.888 224.836 554.063 224.286 553.101 224.286C552.139 224.286 551.314 224.698 551.314 225.385C551.314 226.073 552.139 226.485 553.101 226.485Z" fill="#86B5F8"/>
<path d="M540.732 228.821C541.694 228.821 542.519 228.409 542.519 227.722C542.519 227.172 541.694 226.622 540.732 226.622C539.77 226.622 538.946 227.035 538.946 227.722C538.946 228.272 539.77 228.821 540.732 228.821Z" fill="#86B5F8"/>
<path d="M536.884 235.968C537.846 235.968 538.671 235.555 538.671 234.868C538.671 234.318 537.846 233.769 536.884 233.769C535.922 233.769 535.098 234.181 535.098 234.868C534.96 235.418 535.785 235.968 536.884 235.968Z" fill="#86B5F8"/>
<path d="M544.993 240.64C545.542 240.64 545.955 240.365 545.955 240.09C545.955 239.816 545.542 239.541 544.993 239.541C544.443 239.541 544.031 239.816 544.031 240.09C544.031 240.503 544.443 240.64 544.993 240.64Z" fill="#86B5F8"/>
<path d="M562.171 230.608C562.721 230.608 563.133 230.333 563.133 230.058C563.133 229.783 562.721 229.508 562.171 229.508C561.622 229.508 561.347 229.783 561.347 230.058C561.209 230.47 561.622 230.608 562.171 230.608Z" fill="#86B5F8"/>
<path d="M549.803 238.854C555.3 238.854 559.698 236.242 559.698 233.082C559.698 229.921 555.3 227.309 549.803 227.309C544.305 227.309 539.908 229.921 539.908 233.082C539.908 236.242 544.305 238.854 549.803 238.854Z" fill="#86B5F8"/>
<path d="M552.002 227.584V238.716C556.399 238.166 559.698 235.83 559.698 233.082C559.835 230.333 556.537 228.134 552.002 227.584Z" fill="#4B91F5"/>
<path d="M553.238 224.423V226.485C554.2 226.485 555.025 226.073 555.025 225.385C555.025 224.973 554.2 224.423 553.238 224.423Z" fill="#629FF6"/>
<path d="M540.732 226.622V228.684C541.694 228.684 542.519 228.272 542.519 227.584C542.519 227.172 541.694 226.622 540.732 226.622Z" fill="#629FF6"/>
<path d="M536.747 233.769V235.83C537.709 235.83 538.533 235.418 538.533 234.731C538.671 234.318 537.846 233.769 536.747 233.769Z" fill="#629FF6"/>
<path d="M544.855 239.678V240.64C545.267 240.64 545.817 240.365 545.817 240.091C545.817 239.953 545.405 239.678 544.855 239.678Z" fill="#629FF6"/>
<path d="M562.171 229.646V230.608C562.584 230.608 562.996 230.333 562.996 230.058C562.996 229.783 562.584 229.646 562.171 229.646Z" fill="#629FF6"/>
<path d="M546.229 258.644C545.542 258.644 542.244 257.956 542.244 257.269L542.107 241.74C542.107 241.74 542.794 242.152 543.481 242.289C543.893 242.427 544.58 242.702 546.367 242.839C548.841 242.977 549.803 242.427 549.803 242.427C550.49 242.289 550.215 242.427 551.04 242.015V257.407C551.04 258.094 547.191 258.644 546.229 258.644Z" fill="#96BFF9"/>
<path d="M532.761 236.38V252.047L542.107 257.407V241.74L532.761 236.38Z" fill="#4B91F4"/>
<path d="M531.937 235.006V250.947C531.937 250.947 531.937 251.222 532.074 251.36L532.761 252.047V236.38C532.761 236.38 532.349 236.105 532.212 235.83C532.212 235.693 531.937 235.143 531.937 235.006Z" fill="#4B91F4"/>
<path d="M551.04 242.015L564.92 233.631V249.298L550.902 257.407L551.04 242.015Z" fill="#86B5F8"/>
<path d="M566.844 230.745V246.825C566.844 247.512 566.569 248.199 566.019 248.611L565.057 249.298V233.631C565.057 233.631 565.745 233.219 566.019 232.944C566.294 232.669 566.569 232.257 566.707 231.982C566.707 231.57 566.844 230.883 566.844 230.745Z" fill="#86B5F8"/>
<path d="M561.484 238.579L575.365 236.242C576.327 236.105 577.151 236.242 577.976 236.655L588.008 242.427C589.657 243.389 589.108 245.863 587.459 246.687L574.54 254.521C571.242 256.582 567.119 256.582 563.821 254.658L555.025 249.573C554.2 249.161 553.926 248.199 554.338 247.374L558.461 240.228L561.484 238.579Z" fill="#C3DAFD"/>
<path d="M575.365 239.953C576.327 239.953 577.151 239.541 577.151 238.854C577.151 238.304 576.327 237.754 575.365 237.754C574.403 237.754 573.578 238.166 573.578 238.854C573.578 239.403 574.265 239.953 575.365 239.953Z" fill="#86B5F8"/>
<path d="M562.996 242.152C563.958 242.152 564.783 241.74 564.783 241.053C564.783 240.503 563.958 239.953 562.996 239.953C562.034 239.953 561.209 240.365 561.209 241.053C561.209 241.74 562.034 242.152 562.996 242.152Z" fill="#86B5F8"/>
<path d="M559.01 249.298C559.972 249.298 560.797 248.886 560.797 248.199C560.797 247.649 559.972 247.099 559.01 247.099C558.048 247.099 557.224 247.512 557.224 248.199C557.224 248.886 558.048 249.298 559.01 249.298Z" fill="#86B5F8"/>
<path d="M567.119 254.108C567.669 254.108 568.081 253.834 568.081 253.559C568.081 253.284 567.669 253.009 567.119 253.009C566.569 253.009 566.157 253.284 566.157 253.559C566.157 253.834 566.569 254.108 567.119 254.108Z" fill="#86B5F8"/>
<path d="M584.298 244.076C584.847 244.076 585.26 243.801 585.26 243.526C585.26 243.251 584.847 242.977 584.298 242.977C583.748 242.977 583.336 243.251 583.336 243.526C583.473 243.801 583.885 244.076 584.298 244.076Z" fill="#86B5F8"/>
<path d="M571.929 252.322C577.426 252.322 581.824 249.711 581.824 246.55C581.824 243.389 577.426 240.778 571.929 240.778C566.432 240.778 562.034 243.389 562.034 246.55C562.034 249.711 566.432 252.322 571.929 252.322Z" fill="#86B5F8"/>
<path d="M574.265 240.915V252.047C578.663 251.497 581.961 249.161 581.961 246.412C581.961 243.801 578.663 241.465 574.265 240.915Z" fill="#4B91F5"/>
<path d="M575.365 237.892V239.953C576.327 239.953 577.151 239.541 577.151 238.854C577.151 238.304 576.327 237.892 575.365 237.892Z" fill="#629FF6"/>
<path d="M562.996 240.09V242.152C563.958 242.152 564.783 241.74 564.783 241.053C564.783 240.503 563.958 240.09 562.996 240.09Z" fill="#629FF6"/>
<path d="M559.01 247.237V249.298C559.972 249.298 560.797 248.886 560.797 248.199C560.797 247.649 559.972 247.237 559.01 247.237Z" fill="#629FF6"/>
<path d="M567.119 253.009V253.971C567.531 253.971 568.081 253.696 568.081 253.421C567.943 253.284 567.531 253.009 567.119 253.009Z" fill="#629FF6"/>
<path d="M584.298 242.977V243.939C584.71 243.939 585.26 243.664 585.26 243.389C585.26 243.251 584.847 242.977 584.298 242.977Z" fill="#629FF6"/>
<path d="M568.356 271.974C567.669 271.974 564.37 271.287 564.37 270.6L564.233 255.07C564.233 255.07 564.92 255.483 565.607 255.62C566.019 255.758 566.707 256.032 568.493 256.17C570.967 256.307 571.929 255.758 571.929 255.758C572.616 255.62 572.341 255.758 573.166 255.345V270.737C573.303 271.425 569.318 271.974 568.356 271.974Z" fill="#96BFF9"/>
<path d="M555.025 249.711V265.378L564.37 270.875V255.208L555.025 249.711Z" fill="#4B91F4"/>
<path d="M554.2 248.474V264.416C554.2 264.416 554.2 264.69 554.338 264.828L555.025 265.515V249.848C555.025 249.848 554.613 249.573 554.613 249.298C554.338 249.161 554.2 248.474 554.2 248.474Z" fill="#4B91F4"/>
<path d="M573.166 255.345L587.046 246.962V262.629L573.028 270.737L573.166 255.345Z" fill="#629FF6"/>
<path d="M588.97 244.213V260.293C588.97 260.98 588.695 261.667 588.146 262.079L587.184 262.766V247.099C587.184 247.099 587.871 246.687 588.146 246.412C588.421 246.137 588.695 245.725 588.833 245.45C588.97 245.038 588.97 244.213 588.97 244.213Z" fill="#629FF6"/>
<path d="M601.202 239.678V260.568L552.414 288.741V267.851L601.202 239.678Z" fill="#FFC118"/>
<path d="M552.414 267.851V288.741L503.626 260.568V239.678L552.414 267.851Z" fill="#F9AE00"/>
<path d="M598.041 239.678L552.414 266.065L528.364 252.184L527.264 253.146L552.414 267.714L599.278 240.64L598.041 239.678Z" fill="#FFEFC5"/>
<path d="M518.881 290.527V311.417L470.093 339.59V318.701L518.881 290.527Z" fill="#FFC118"/>
<path d="M470.093 318.701V339.59L421.305 311.417V290.527L470.093 318.701Z" fill="#F9AE00"/>
<path d="M470.093 262.079L421.305 290.527L470.093 318.701L518.881 290.527L470.093 262.079Z" fill="#FFE08B"/>
<path d="M493.594 303.308L470.093 289.565L446.593 303.308L470.093 316.914L493.594 303.308Z" fill="#FFE08B"/>
<path d="M515.857 290.527L470.093 263.866V289.565L493.594 303.308L515.857 290.527Z" fill="#FFD152"/>
<path d="M470.093 263.866L424.329 290.527L446.455 303.308L469.956 289.565V263.866H470.093Z" fill="#FFC118"/>
<path d="M459.923 279.396L473.804 277.059C474.766 276.922 475.59 277.059 476.415 277.472L486.447 283.244C488.097 284.206 487.547 286.679 485.898 287.504L472.979 295.337C469.681 297.399 465.558 297.399 462.26 295.475L453.464 290.39C452.64 289.978 452.365 289.016 452.777 288.191L456.9 281.045L459.923 279.396Z" fill="#C3DAFD"/>
<path d="M473.666 280.632C474.628 280.632 475.453 280.22 475.453 279.533C475.453 278.983 474.628 278.434 473.666 278.434C472.704 278.434 471.88 278.846 471.88 279.533C471.88 280.22 472.704 280.632 473.666 280.632Z" fill="#86B5F8"/>
<path d="M461.435 282.969C462.397 282.969 463.222 282.556 463.222 281.869C463.222 281.32 462.397 280.77 461.435 280.77C460.473 280.77 459.648 281.182 459.648 281.869C459.511 282.419 460.336 282.969 461.435 282.969Z" fill="#86B5F8"/>
<path d="M457.45 290.115C458.412 290.115 459.236 289.703 459.236 289.016C459.236 288.328 458.412 287.916 457.45 287.916C456.488 287.916 455.663 288.328 455.663 289.016C455.663 289.703 456.35 290.115 457.45 290.115Z" fill="#86B5F8"/>
<path d="M465.558 294.788C466.108 294.788 466.383 294.513 466.383 294.238C466.383 293.963 465.97 293.688 465.558 293.688C465.008 293.688 464.596 293.963 464.596 294.238C464.596 294.65 465.008 294.788 465.558 294.788Z" fill="#86B5F8"/>
<path d="M482.737 284.755C483.286 284.755 483.699 284.48 483.699 284.206C483.699 283.931 483.286 283.656 482.737 283.656C482.187 283.656 481.912 283.931 481.912 284.206C481.775 284.618 482.187 284.755 482.737 284.755Z" fill="#86B5F8"/>
<path d="M470.368 293.001C475.865 293.001 480.263 290.39 480.263 287.229C480.263 284.068 475.865 281.457 470.368 281.457C464.871 281.457 460.473 284.068 460.473 287.229C460.473 290.39 464.871 293.001 470.368 293.001Z" fill="#86B5F8"/>
<path d="M472.567 281.732V292.864C476.965 292.314 480.263 289.978 480.263 287.229C480.4 284.48 477.102 282.282 472.567 281.732Z" fill="#4B91F5"/>
<path d="M473.804 278.571V280.632C474.766 280.632 475.59 280.22 475.59 279.533C475.59 279.121 474.766 278.571 473.804 278.571Z" fill="#629FF6"/>
<path d="M461.298 280.77V282.831C462.26 282.831 463.084 282.419 463.084 281.732C463.222 281.32 462.397 280.77 461.298 280.77Z" fill="#629FF6"/>
<path d="M457.312 287.916V289.978C458.274 289.978 459.099 289.565 459.099 288.878C459.099 288.191 458.412 287.916 457.312 287.916Z" fill="#629FF6"/>
<path d="M465.421 293.826V294.788C465.97 294.788 466.383 294.513 466.383 294.238C466.383 293.963 465.97 293.826 465.421 293.826Z" fill="#629FF6"/>
<path d="M482.737 283.656V284.618C483.286 284.618 483.699 284.343 483.699 284.068C483.561 283.931 483.286 283.656 482.737 283.656Z" fill="#629FF6"/>
<path d="M466.795 312.791C466.108 312.791 462.809 312.104 462.809 311.417L462.672 295.887C462.672 295.887 463.359 296.299 464.046 296.437C464.458 296.574 465.146 296.849 466.932 296.987C469.406 297.124 470.368 296.574 470.368 296.574C471.055 296.437 470.78 296.574 471.605 296.162V311.554C471.605 312.241 467.619 312.791 466.795 312.791Z" fill="#96BFF9"/>
<path d="M453.327 290.527V306.194L462.672 311.692V296.025L453.327 290.527Z" fill="#4B91F5"/>
<path d="M452.64 289.153V305.095C452.64 305.095 452.64 305.37 452.777 305.507L453.464 306.194V290.527C453.464 290.527 453.052 290.253 452.914 289.978C452.777 289.84 452.64 289.153 452.64 289.153Z" fill="#4B91F4"/>
<path d="M471.605 296.162L485.485 287.779V303.446L471.467 311.554L471.605 296.162Z" fill="#86B5F8"/>
<path d="M487.409 284.893V300.972C487.409 301.659 487.134 302.346 486.585 302.759L485.623 303.446V287.779C485.623 287.779 486.31 287.366 486.585 287.092C486.86 286.817 487.134 286.404 487.272 286.13C487.272 285.717 487.409 285.03 487.409 284.893Z" fill="#86B5F8"/>
<path d="M417.183 40.6793C417.183 39.0302 417.595 37.6559 418.145 36.5564H416.633L420.069 34.7698C421.305 34.2201 422.817 34.3575 424.329 35.3196C427.765 37.2436 430.651 42.1911 431.338 46.8637V47.1385L442.195 129.734C442.195 130.146 442.332 130.421 442.332 130.834C442.332 133.857 441.233 135.918 439.584 136.606L437.385 137.842L437.11 136.88C436.423 136.743 435.736 136.606 435.048 136.193C431.338 134.132 428.314 128.635 428.04 123.687L417.32 43.2905C417.183 42.1911 417.183 41.5039 417.183 40.6793Z" fill="#8495A3"/>
<path d="M412.51 42.4659C412.51 37.2436 415.671 34.7698 419.656 37.1062C423.092 39.0302 425.978 43.9777 426.665 48.6503V48.9251L437.522 131.521C437.522 131.933 437.66 132.208 437.66 132.62C437.66 137.842 434.499 140.316 430.513 137.98C426.803 135.918 423.917 130.421 423.504 125.474L412.785 44.9397C412.647 44.1151 412.647 43.2905 412.51 42.4659Z" fill="#9FACB7"/>
<path d="M424.879 16.9039C427.627 15.2548 431.2 15.3922 435.186 17.5911C437.247 18.8279 439.309 20.4771 441.095 22.5386L409.486 40.5419L394.094 34.3576L424.879 16.9039Z" fill="#F5F7F8"/>
<path d="M441.095 22.676L477.927 23.5005L456.213 35.8693L453.052 40.4045L451.54 41.6413L446.455 41.5039L409.486 40.6793L441.095 22.676Z" fill="#D5DBE0"/>
<path d="M477.927 23.5005L487.684 17.8659C490.295 16.4916 493.731 16.7665 497.442 18.8279C506.1 23.7754 512.971 37.1061 512.971 48.5128C512.971 54.8346 510.91 59.2324 507.612 61.019L507.337 61.1564L476.14 79.0223L453.464 44.6648L456.213 35.7318L477.927 23.5005Z" fill="#F5F7F8"/>
<path d="M512.834 48.3754C512.834 54.6972 510.772 59.095 507.474 60.8816L507.199 61.019L476.003 78.8849L464.184 60.8816L510.223 35.1821C511.872 39.5799 512.834 44.1151 512.834 48.3754Z" fill="#CDD4DA"/>
<path d="M403.577 35.7318C405.638 36.9687 407.7 38.6179 409.486 40.6793L451.54 41.6413C453.876 35.3195 459.374 33.1207 465.97 36.9687C474.628 41.9162 481.5 55.2469 481.5 66.6536C481.5 78.0603 474.491 83.4201 465.97 78.4726C463.909 77.2357 461.985 75.5866 460.198 73.6626L417.87 73.1128C415.396 78.8849 410.036 80.8089 403.714 77.2357C395.056 72.2883 388.185 58.9575 388.185 47.5508C388.047 36.0067 395.056 30.7843 403.577 35.7318Z" fill="#C1CAD1"/>
<path d="M437.797 49.8871L418.007 49.3374C417.457 49.3374 417.045 48.9251 417.045 48.3754C417.045 47.8257 417.595 47.4134 418.007 47.4134L437.797 47.9631C438.347 47.9631 438.759 48.3754 438.759 48.9251C438.759 49.4748 438.347 49.8871 437.797 49.8871Z" fill="#E63817"/>
<path d="M439.721 55.3843L419.931 54.9721C419.381 54.9721 418.969 54.5598 418.969 54.01C418.969 53.4603 419.519 53.1855 419.931 53.048L439.721 53.5978C440.271 53.5978 440.683 54.01 440.683 54.5598C440.683 54.9721 440.271 55.3843 439.721 55.3843Z" fill="#E63817"/>
<path d="M441.92 61.019L422.13 60.4693C421.58 60.4693 421.168 60.057 421.168 59.5073C421.168 58.9575 421.718 58.5453 422.13 58.5453L441.92 59.095C442.47 59.095 442.882 59.5073 442.882 60.057C442.882 60.6067 442.47 61.019 441.92 61.019Z" fill="#E63817"/>
<path d="M443.981 66.6536L424.191 66.1039C423.642 66.1039 423.229 65.6916 423.229 65.1419C423.229 64.5922 423.779 64.1799 424.191 64.1799L443.981 64.7296C444.531 64.7296 444.943 65.1419 444.943 65.6916C444.943 66.2413 444.531 66.6536 443.981 66.6536Z" fill="#E63817"/>
<path d="M442.607 152.273C434.361 148.287 423.504 145.813 411.823 145.813C400.004 145.813 389.284 148.287 381.038 152.273H364.684V172.2C364.684 186.768 385.711 198.449 411.823 198.449C437.797 198.449 458.961 186.63 458.961 172.2V152.273H442.607Z" fill="#617A8D"/>
<path d="M411.823 178.522C437.797 178.522 458.961 166.703 458.961 152.273C458.961 137.842 437.934 126.023 411.823 126.023C385.848 126.023 364.684 137.842 364.684 152.273C364.684 166.703 385.711 178.522 411.823 178.522Z" fill="#8495A3"/>
<path d="M437.797 129.047C430.788 125.611 421.718 123.687 411.823 123.687C401.928 123.687 392.857 125.749 385.848 129.047L372.105 134.956V145.813C372.105 158.045 389.834 167.94 411.823 167.94C433.812 167.94 451.54 158.045 451.54 145.813V134.956L437.797 129.047Z" fill="#5B7386"/>
<path d="M372.105 134.956C372.105 147.188 389.834 157.083 411.823 157.083C433.812 157.083 451.54 147.188 451.54 134.956C451.54 122.725 433.812 112.83 411.823 112.83C389.834 112.83 372.105 122.725 372.105 134.956Z" fill="#9EA9B3"/>
<path d="M401.378 96.3385C403.165 95.2391 405.501 95.3765 408.112 96.7508C408.112 96.7508 434.086 111.731 434.224 111.868C439.859 115.029 444.394 123.825 444.394 131.246C444.394 135.369 443.019 138.255 440.82 139.492L420.206 151.448L380.901 108.295L401.378 96.3385Z" fill="#C1CAD1"/>
<path d="M443.707 131.796C443.707 135.918 442.332 138.804 440.133 140.041L419.519 151.998L405.226 136.056L437.522 115.441C441.233 119.702 443.707 126.023 443.707 131.796Z" fill="#B1BDC7"/>
<path d="M387.36 108.845C387.36 108.845 413.334 123.825 413.472 123.962C419.107 127.123 423.642 135.918 423.642 143.34C423.642 150.761 419.381 153.922 414.022 151.173L387.498 135.781C381.863 132.62 377.328 123.825 377.328 116.403C377.328 108.982 381.863 105.546 387.36 108.845Z" fill="#8495A3"/>
<path d="M395.469 52.9106C395.469 51.2615 395.881 49.8872 396.431 48.7877H394.919L398.355 47.0011C399.591 46.4514 401.103 46.5888 402.615 47.5508C406.051 49.4749 408.937 54.4224 409.624 59.095V59.3698L420.481 141.965C420.481 142.378 420.618 142.653 420.618 143.065C420.618 146.088 419.519 148.15 417.87 148.837L415.671 150.074L415.396 149.112C414.709 148.974 414.022 148.837 413.334 148.425C409.624 146.363 406.738 140.866 406.326 135.918L395.606 55.5218C395.606 54.5598 395.469 53.7352 395.469 52.9106Z" fill="#617788"/>
<path d="M390.659 54.6972C390.659 49.4749 393.819 47.0011 397.805 49.3374C401.241 51.2615 404.127 56.209 404.814 60.8816V61.1564L415.671 143.752C415.671 144.164 415.808 144.439 415.808 144.851C415.808 150.074 412.647 152.548 408.662 150.211C404.951 148.15 401.928 142.653 401.653 137.705L390.933 57.3084C390.796 56.3464 390.659 55.5218 390.659 54.6972Z" fill="#9FACB7"/>
<path d="M417.045 144.989C417.045 151.173 413.335 154.059 408.662 151.311C403.989 148.699 400.279 141.416 400.279 135.231C400.279 129.047 403.989 126.161 408.662 128.91C413.197 131.658 417.045 138.804 417.045 144.989Z" fill="#C3DAFD"/>
<path d="M412.51 64.0425C412.51 55.3844 407.288 45.4894 400.828 41.7788C397.942 40.1296 395.331 39.9922 393.407 41.0916L388.047 43.9777L403.165 76.4112L408.799 73.3877C411.136 71.876 412.647 68.5777 412.51 64.0425Z" fill="#476175"/>
<path d="M407.562 66.7911C407.562 75.4492 402.34 79.2972 395.881 75.5866C389.422 71.876 384.199 61.8436 384.199 53.3229C384.199 44.6648 389.422 40.8168 395.881 44.5274C402.34 48.238 407.562 58.133 407.562 66.7911Z" fill="#8495A3"/>
<path d="M400.966 63.6302C400.966 59.2324 398.355 54.1475 395.056 52.3609C393.682 51.5363 392.308 51.3989 391.208 51.9486L388.46 53.4603L396.156 69.952L399.042 68.4402C400.279 67.6156 400.966 65.9665 400.966 63.6302Z" fill="#476175"/>
<path d="M398.492 65.0045C398.492 69.4022 395.881 71.3263 392.583 69.5397C389.284 67.6156 386.673 62.5307 386.673 58.2704C386.673 53.8726 389.284 51.9486 392.583 53.7352C395.743 55.5218 398.492 60.6067 398.492 65.0045Z" fill="#C9D1D7"/>
<path d="M474.491 66.1039C474.491 57.4458 469.269 47.5509 462.809 43.8402C459.923 42.1911 457.312 42.0536 455.388 43.1531L450.028 46.1765L465.146 78.6101L470.78 75.5866C473.117 74.0749 474.491 70.7765 474.491 66.1039Z" fill="#476175"/>
<path d="M469.543 68.8525C469.543 77.5106 464.321 81.3587 457.862 77.6481C451.403 73.9374 446.18 63.905 446.18 55.3844C446.18 46.7263 451.403 42.8782 457.862 46.5888C464.321 50.2995 469.543 60.3318 469.543 68.8525Z" fill="#8495A3"/>
<path d="M462.947 65.6916C462.947 61.2939 460.336 56.209 457.037 54.4224C455.663 53.5978 454.289 53.4603 453.189 54.0101L450.441 55.5218L458.137 72.0134L461.023 70.5017C462.122 69.6771 462.947 68.0279 462.947 65.6916Z" fill="#476175"/>
<path d="M460.336 67.2034C460.336 71.6011 457.724 73.5251 454.426 71.7386C451.128 69.8145 448.517 64.7296 448.517 60.4693C448.517 56.0715 451.128 54.1475 454.426 55.9341C457.724 57.7207 460.336 62.8056 460.336 67.2034Z" fill="#C9D1D7"/>
<path d="M488.509 57.3084C488.921 60.3319 490.158 62.3933 491.807 63.0805L542.244 83.8324L551.452 61.981L499.091 40.4045C497.717 39.8548 495.93 40.1296 494.281 41.5039C490.433 44.6648 487.822 51.6738 488.509 57.3084Z" fill="#F5F7F8"/>
<path d="M548.153 70.2268L542.381 83.9698L491.945 63.2179C490.295 62.5307 489.059 60.4693 488.646 57.4458C488.234 54.1475 488.921 50.2994 490.433 47.1385L548.153 70.2268Z" fill="#C1CAD1"/>
<path d="M548.978 81.4961C544.855 85.4816 540.732 84.7944 539.495 80.1218C538.259 75.3117 540.595 68.3028 544.58 64.3173C548.703 60.3319 552.963 61.019 554.063 65.6916C555.3 70.5017 552.964 77.5106 548.978 81.4961Z" fill="#8194EC"/>
<path d="M559.972 107.608L563.958 138.392L566.157 140.866L565.195 140.454L561.347 137.293L557.361 106.646L559.972 107.608Z" fill="#F5F7F8"/>
<path d="M562.171 100.874L564.783 101.973L559.972 107.608L557.361 106.508L562.171 100.874Z" fill="#C1D1FF"/>
<path d="M564.783 101.973L570.005 97.9877L567.394 96.7509L562.171 100.874L564.783 101.973Z" fill="#C5D4FF"/>
<path d="M569.318 134.269L571.379 136.743L566.157 140.866L563.958 138.392L569.318 134.269Z" fill="#C3DAFD"/>
<path d="M564.783 101.973L570.005 97.9877L565.195 103.622L559.972 107.608L564.783 101.973Z" fill="#A4BBFF"/>
<path d="M565.195 103.485L569.318 134.132L563.958 138.255L559.972 107.47L565.195 103.485Z" fill="#9FACB7"/>
<path d="M565.195 129.597L583.748 126.436C584.985 126.298 586.222 126.436 587.184 126.985L600.652 134.682C602.851 136.056 602.164 139.217 599.965 140.454L582.648 151.036C578.251 153.784 572.753 153.784 568.356 151.173L556.537 144.439C555.437 143.889 555.162 142.515 555.712 141.416L561.209 131.796L565.195 129.597Z" fill="#FFE6A0"/>
<path d="M583.61 131.383C584.985 131.383 586.084 130.696 586.084 130.009C586.084 129.184 584.985 128.635 583.61 128.635C582.236 128.635 581.137 129.322 581.137 130.009C581.137 130.696 582.236 131.383 583.61 131.383Z" fill="#FFD152"/>
<path d="M567.119 134.407C568.493 134.407 569.593 133.72 569.593 133.032C569.593 132.345 568.493 131.658 567.119 131.658C565.745 131.658 564.645 132.345 564.645 133.032C564.645 133.72 565.745 134.407 567.119 134.407Z" fill="#FFD152"/>
<path d="M561.759 144.027C563.133 144.027 564.233 143.34 564.233 142.652C564.233 141.828 563.133 141.278 561.759 141.278C560.385 141.278 559.285 141.965 559.285 142.652C559.285 143.34 560.385 144.027 561.759 144.027Z" fill="#FFD152"/>
<path d="M572.616 150.349C573.303 150.349 573.853 150.074 573.853 149.661C573.853 149.249 573.303 148.974 572.616 148.974C571.929 148.974 571.379 149.249 571.379 149.661C571.379 150.074 571.929 150.349 572.616 150.349Z" fill="#FFD152"/>
<path d="M595.704 136.88C596.391 136.88 596.941 136.606 596.941 136.193C596.941 135.781 596.391 135.506 595.704 135.506C595.017 135.506 594.467 135.781 594.467 136.193C594.467 136.606 595.017 136.88 595.704 136.88Z" fill="#FFD152"/>
<path opacity="0.8" d="M579.213 147.875C586.634 147.875 592.543 144.439 592.543 140.179C592.543 135.918 586.634 132.483 579.213 132.483C571.791 132.483 565.882 135.918 565.882 140.179C565.882 144.439 571.791 147.875 579.213 147.875Z" fill="#FFC118"/>
<path opacity="0.68" d="M582.236 132.758V147.6C588.146 146.775 592.543 143.752 592.543 140.179C592.543 136.606 588.146 133.582 582.236 132.758Z" fill="#F9AE00"/>
<path d="M583.61 128.635L583.473 131.521C583.473 131.521 583.473 131.521 583.61 131.521C584.985 131.521 586.084 130.834 586.084 130.146C586.084 129.184 584.985 128.635 583.61 128.635Z" fill="#FAB921"/>
<path d="M567.119 131.658L566.981 134.544C566.981 134.544 566.981 134.544 567.119 134.544C568.493 134.544 569.593 133.857 569.593 133.17C569.455 132.208 568.356 131.658 567.119 131.658Z" fill="#FAB921"/>
<path d="M561.759 141.141L561.622 144.027C561.622 144.027 561.622 144.027 561.759 144.027C563.133 144.027 564.233 143.34 564.233 142.653C564.233 141.828 563.133 141.141 561.759 141.141Z" fill="#FAB921"/>
<path d="M572.616 148.974V150.349C573.303 150.349 573.853 150.074 573.853 149.661C573.853 149.249 573.303 148.974 572.616 148.974Z" fill="#FAB921"/>
<path d="M595.704 135.506V136.88C596.391 136.88 596.941 136.606 596.941 136.193C596.941 135.781 596.391 135.506 595.704 135.506Z" fill="#FAB921"/>
<path d="M574.403 174.261C573.441 174.261 569.043 173.437 569.043 172.475L568.905 151.723C568.905 151.723 569.867 152.273 570.829 152.547C571.379 152.685 572.204 153.097 574.677 153.235C577.976 153.372 579.213 152.685 579.213 152.685C580.175 152.41 579.762 152.685 580.862 152.135V172.75C580.724 173.574 575.502 174.261 574.403 174.261Z" fill="#FBCD4F"/>
<path d="M556.399 144.577V165.466L568.905 172.75V151.723L556.399 144.577Z" fill="#F9AE00"/>
<path d="M555.3 142.79V164.092C555.3 164.229 555.3 164.504 555.437 164.641L556.262 165.466V144.577C556.262 144.577 555.712 144.164 555.575 143.889C555.575 143.615 555.3 142.79 555.3 142.79Z" fill="#F9AE00"/>
<path d="M580.862 152.135L599.552 141.003V161.893L580.862 172.887V152.135Z" fill="#FFC118"/>
<path d="M601.889 137.155V158.594C601.889 159.556 601.476 160.381 600.789 160.931L599.415 161.893V140.866C599.415 140.866 600.24 140.454 600.652 140.041C601.064 139.629 601.476 139.217 601.614 138.667C601.889 138.117 601.889 137.155 601.889 137.155Z" fill="#FFC118"/>
<path d="M567.669 103.21L572.891 99.0872L570.005 97.8503L564.783 102.111L567.669 103.21Z" fill="#C5D4FF"/>
<path d="M567.669 103.21L573.166 113.105L570.28 111.868L564.783 102.111L567.669 103.21Z" fill="#C1D1FF"/>
<path d="M576.739 140.454L572.891 143.477L572.204 143.065L573.99 140.041L570.28 111.868L573.166 113.105L576.739 140.454Z" fill="#F5F7F8"/>
<path d="M567.669 103.21L572.891 99.0872L578.388 108.982L573.166 112.968L567.669 103.21Z" fill="#A4BBFF"/>
<path d="M578.388 108.982L581.961 136.331L576.602 140.454L573.028 113.105L578.388 108.982Z" fill="#9FACB7"/>
<path d="M573.715 60.6067L547.879 110.769L535.235 105.684C532.212 104.722 529.6 102.111 529.188 98.4L527.539 86.1687C526.714 79.8469 529.326 73.6626 534.273 69.8145L551.727 56.4838C554.475 54.2849 557.911 54.1475 560.66 55.3844L573.715 60.6067Z" fill="#F5F7F8"/>
<path d="M569.18 93.4525L566.707 74.4872L556.949 82.0458L559.423 101.149L555.575 104.035L556.262 108.982L573.716 95.9263L573.028 90.5665L569.18 93.4525Z" fill="#8495A3"/>
<path d="M557.636 106.508C558.048 109.532 562.859 111.456 568.356 110.769C573.853 110.082 577.976 106.921 577.564 103.897C577.151 100.874 572.341 98.9497 566.844 99.6369C561.484 100.324 557.224 103.347 557.636 106.508Z" fill="#FF182B"/>
<path d="M574.952 90.8414C572.341 90.0168 569.18 89.7419 565.745 90.1542C562.309 90.5665 559.285 91.6659 556.949 93.1777L552.414 95.9263L554.613 112.555C555.162 116.816 561.759 119.427 569.455 118.465C577.014 117.503 582.786 113.242 582.236 108.982L580.037 92.3531L574.952 90.8414Z" fill="#476175"/>
<path d="M580.037 92.3531C580.587 96.6134 574.815 100.874 567.256 101.836C564.233 102.248 561.347 102.111 559.01 101.423C558.736 101.423 558.461 101.286 558.323 101.286C558.048 101.149 557.636 101.011 557.361 100.874C556.949 100.736 556.537 100.599 556.124 100.324C555.575 100.049 555.162 99.7743 554.75 99.362C554.475 99.0872 554.2 98.9497 554.063 98.6749C553.926 98.4 553.651 98.2626 553.513 98.1252C553.513 98.1252 553.513 97.9877 553.376 97.9877C553.238 97.7129 553.101 97.5754 552.964 97.3006C552.689 96.8883 552.551 96.3386 552.414 95.7888C552.414 95.514 552.414 95.2391 552.414 94.9643C552.414 94.8268 552.414 94.6894 552.414 94.552C552.414 94.2771 552.551 94.0022 552.551 93.8648C552.689 93.59 552.689 93.3151 552.826 93.0402C552.826 92.9028 552.964 92.7654 552.964 92.6279C553.101 92.3531 553.238 92.0782 553.513 91.8034C554.475 90.5665 555.85 89.4671 557.636 88.505C559.698 87.4056 562.309 86.581 565.057 86.1687C572.891 85.4816 579.488 88.0927 580.037 92.3531Z" fill="#9FACB7"/>
<path d="M558.873 101.423C558.598 101.423 558.323 101.286 558.186 101.286C558.461 101.286 558.736 101.286 558.873 101.423Z" fill="#FF182B"/>
<path d="M574.952 89.467C574.677 87.2682 573.715 85.0693 572.341 83.2827C571.929 82.733 571.517 82.3207 570.967 81.771C568.493 79.4346 564.508 79.1598 561.759 81.3587C560.385 82.4581 559.01 83.5575 558.186 84.1073L569.455 98.1251L575.502 93.4525L574.952 89.467Z" fill="#E6E9EC"/>
<path d="M569.043 94.1397C568.493 89.8793 565.195 85.3441 561.896 83.9698C558.461 82.5955 556.124 84.7944 556.674 89.0547C556.674 89.1922 556.674 89.1922 556.674 89.3296L557.086 92.2156L557.224 93.0402L563.133 95.514C563.133 95.514 563.408 95.6514 563.546 95.6514C563.683 95.6514 563.683 95.7888 563.82 95.7888L569.73 98.1251L569.043 94.1397Z" fill="#C1CAD1"/>
<path d="M557.224 88.6424L547.741 111.181L535.098 106.096C532.074 105.134 529.6 102.523 529.051 98.8123L527.402 86.581C526.989 83.2827 527.539 79.9843 528.776 76.9609L530.837 78.0603L557.224 88.6424Z" fill="#B7BFC2"/>
<path d="M540.87 91.5285L542.519 103.76C543.206 109.12 548.291 112.28 553.101 111.318L554.338 110.494L553.788 106.234L559.56 101.698L556.949 82.0458L566.707 74.4871L567.394 79.8469C568.631 80.1218 570.005 80.6715 570.967 81.6335C571.517 82.1832 572.066 82.7329 572.341 83.1452C573.166 84.2447 573.853 85.619 574.265 86.9933C576.327 87.6804 578.113 88.7799 578.938 90.0167C580.587 86.9933 581.137 83.4201 580.724 79.8469L579.075 67.6156C578.251 60.8815 570.28 57.5832 564.92 61.7061L547.466 75.0369C542.656 79.0223 540.045 85.3441 540.87 91.5285Z" fill="#C1CAD1"/>
<path d="M569.455 80.6715L562.446 77.648L556.812 82.0458L557.224 85.0693L557.636 84.5195L558.873 83.695L569.455 80.6715Z" fill="#E6E9EC"/>
<path d="M561.484 83.8324L556.812 81.9084L558.461 93.4525L561.484 83.8324Z" fill="#C1CAD1"/>
<path d="M412.647 143.889C412.647 139.766 410.174 135.094 407.15 133.307C405.776 132.483 404.539 132.483 403.577 132.895L401.103 134.269L408.25 149.661L410.861 148.287C411.823 147.6 412.647 146.088 412.647 143.889Z" fill="#476175"/>
<path d="M410.174 145.126C410.174 149.249 407.7 151.036 404.676 149.249C401.653 147.463 399.179 142.79 399.179 138.667C399.179 134.544 401.653 132.758 404.676 134.544C407.7 136.331 410.174 141.003 410.174 145.126Z" fill="#C9D1D7"/>
<path d="M303.528 89.467C303.528 87.6804 303.94 86.1687 304.49 85.0693H302.841L306.551 83.1453C307.788 82.5955 309.437 82.733 311.224 83.695C314.935 85.7564 318.095 91.1162 318.783 96.2011V96.476L330.602 185.943C330.602 186.355 330.739 186.768 330.739 187.18C330.739 190.478 329.64 192.677 327.853 193.502L325.517 194.876L325.242 193.777C324.555 193.639 323.73 193.502 323.043 192.952C319.057 190.616 315.759 184.844 315.347 179.346L303.803 92.0782C303.665 91.2536 303.528 90.4291 303.528 89.467Z" fill="#8495A3"/>
<path d="M298.58 91.3911C298.58 85.619 302.016 83.0078 306.276 85.4816C309.987 87.543 313.148 92.9028 313.835 97.9877V98.2626L325.654 187.73C325.654 188.142 325.791 188.554 325.791 188.966C325.791 194.739 322.356 197.35 318.095 194.876C314.11 192.54 310.812 186.768 310.399 181.27L298.855 94.0022C298.58 93.1777 298.58 92.3531 298.58 91.3911Z" fill="#9FACB7"/>
<path d="M311.911 63.7676C314.935 61.981 318.783 62.1184 323.043 64.5922C325.379 65.9665 327.441 67.7531 329.502 69.952L295.282 89.467L278.653 82.733L311.911 63.7676Z" fill="#F5F7F8"/>
<path d="M329.365 69.952L369.357 70.914L345.856 84.2447L342.421 89.0548L340.771 90.4291L335.274 90.2916L295.282 89.3296L329.365 69.952Z" fill="#D5DBE0"/>
<path d="M369.357 70.914L379.939 64.867C382.825 63.3553 386.536 63.6302 390.521 65.9665C399.866 71.3262 407.425 85.7564 407.425 98.2626C407.425 105.134 405.089 109.807 401.515 111.868L401.241 112.006L367.433 131.383L342.833 94.1397L345.856 84.3821L369.357 70.914Z" fill="#E6E9EC"/>
<path d="M407.15 97.8503C407.15 104.722 404.814 109.394 401.241 111.456L400.966 111.593L367.158 130.971L354.24 111.456L404.127 83.5576C406.188 88.2302 407.15 93.1777 407.15 97.8503Z" fill="#CDD4DA"/>
<path d="M288.823 84.1073C291.159 85.4816 293.221 87.2682 295.282 89.467L340.771 90.5665C343.245 83.695 349.292 81.3587 356.438 85.4816C365.784 90.8413 373.342 105.272 373.342 117.778C373.342 130.284 365.784 135.918 356.438 130.559C354.24 129.322 352.041 127.535 350.117 125.336L304.215 124.787C301.604 131.108 295.694 133.17 288.823 129.184C279.478 123.825 271.919 109.394 271.919 96.8883C271.919 84.3821 279.478 78.7475 288.823 84.1073Z" fill="#C1CAD1"/>
<path d="M325.929 99.4994L304.352 98.9497C303.803 98.9497 303.39 98.4 303.39 97.9877C303.39 97.438 303.94 97.0257 304.352 97.0257L325.929 97.5754C326.479 97.5754 326.891 98.1251 326.891 98.5374C326.891 99.0871 326.479 99.4994 325.929 99.4994Z" fill="#E63817"/>
<path d="M327.99 105.546L306.414 104.997C305.864 104.997 305.452 104.447 305.452 104.035C305.452 103.485 306.002 103.073 306.414 103.073L327.99 103.622C328.54 103.622 328.952 104.172 328.952 104.584C329.09 105.134 328.677 105.546 327.99 105.546Z" fill="#E63817"/>
<path d="M330.464 111.593L308.888 111.044C308.338 111.044 307.926 110.494 307.926 110.082C307.926 109.532 308.475 109.12 308.888 109.12L330.464 109.669C331.014 109.669 331.426 110.219 331.426 110.631C331.426 111.181 331.014 111.593 330.464 111.593Z" fill="#E63817"/>
<path d="M332.663 117.64L311.086 117.09C310.537 117.09 310.124 116.541 310.124 116.128C310.124 115.579 310.674 115.166 311.086 115.166L332.663 115.716C333.213 115.716 333.625 116.266 333.625 116.678C333.625 117.09 333.213 117.64 332.663 117.64Z" fill="#E63817"/>
<path d="M331.151 210.543C322.218 206.145 310.537 203.534 297.756 203.534C284.975 203.534 273.293 206.145 264.36 210.543H246.769V232.12C246.769 247.924 269.583 260.705 297.893 260.705C326.204 260.705 349.017 247.924 349.017 232.12V210.543H331.151Z" fill="#617A8D"/>
<path d="M297.756 238.991C325.929 238.991 348.88 226.21 348.88 210.406C348.88 194.601 326.066 181.82 297.756 181.82C269.583 181.82 246.632 194.601 246.632 210.406C246.632 226.21 269.445 238.991 297.756 238.991Z" fill="#8495A3"/>
<path d="M325.791 185.393C318.233 181.683 308.475 179.484 297.618 179.484C286.899 179.484 277.004 181.683 269.445 185.393L254.603 191.853V203.534C254.603 216.865 273.843 227.584 297.618 227.584C321.394 227.584 340.634 216.865 340.634 203.534V191.853L325.791 185.393Z" fill="#5B7386"/>
<path d="M254.74 191.715C254.74 205.046 273.98 215.765 297.756 215.765C321.531 215.765 340.771 205.046 340.771 191.715C340.771 178.384 321.531 167.665 297.756 167.665C273.98 167.665 254.74 178.522 254.74 191.715Z" fill="#9EA9B3"/>
<path d="M286.486 149.799C288.41 148.562 291.022 148.699 293.77 150.349C293.77 150.349 321.943 166.565 322.081 166.703C328.128 170.139 333.075 179.621 333.075 187.592C333.075 192.127 331.564 195.151 329.227 196.525L306.826 209.444L264.223 162.717L286.486 149.799Z" fill="#C1CAD1"/>
<path d="M332.388 188.279C332.388 192.815 330.876 195.975 328.54 197.212L306.139 210.131L290.609 193.089L325.654 170.826C329.502 175.223 332.388 182.095 332.388 188.279Z" fill="#B1BDC7"/>
<path d="M271.232 163.404C271.232 163.404 299.405 179.621 299.542 179.759C305.589 183.194 310.537 192.677 310.537 200.648C310.537 208.756 306.002 212.192 300.092 209.169L271.232 192.677C265.185 189.241 260.237 179.759 260.237 171.788C260.237 163.542 265.185 159.831 271.232 163.404Z" fill="#859BAD"/>
<path d="M280.027 102.798C280.027 101.011 280.44 99.4994 280.989 98.4H279.34L283.051 96.476C284.288 95.9263 285.937 96.0637 287.723 97.0257C291.434 99.0872 294.595 104.447 295.282 109.532V109.807L307.101 199.274C307.101 199.686 307.238 200.098 307.238 200.511C307.238 203.809 306.139 206.008 304.352 206.832L302.016 208.207L301.741 207.107C301.054 206.97 300.229 206.832 299.542 206.283C295.557 203.946 292.259 198.174 291.846 192.677L280.302 105.409C280.165 104.584 280.027 103.76 280.027 102.798Z" fill="#617788"/>
<path d="M274.805 104.859C274.805 99.0871 278.241 96.476 282.501 98.9497C286.212 101.011 289.372 106.371 290.06 111.456V111.731L301.879 201.198C301.879 201.61 302.016 202.022 302.016 202.435C302.016 208.207 298.58 210.818 294.32 208.344C290.334 206.008 287.036 200.236 286.624 194.739L275.08 107.47C274.942 106.508 274.805 105.684 274.805 104.859Z" fill="#9FACB7"/>
<path d="M303.39 202.709C303.39 209.444 299.267 212.467 294.32 209.581C289.235 206.695 285.25 198.861 285.25 192.265C285.25 185.531 289.372 182.507 294.32 185.393C299.267 188.279 303.39 195.975 303.39 202.709Z" fill="#8495A3"/>
<path d="M298.58 114.892C298.58 105.546 292.946 94.8268 285.937 90.7039C282.913 88.9173 280.027 88.7799 277.828 89.8793L272.056 93.1777L288.41 128.36L294.457 125.061C296.931 123.412 298.58 119.839 298.58 114.892Z" fill="#476175"/>
<path d="M293.083 117.778C293.083 127.123 287.448 131.383 280.439 127.26C273.431 123.275 267.796 112.418 267.796 103.073C267.796 93.7274 273.431 89.467 280.439 93.5899C287.448 97.7128 293.083 108.432 293.083 117.778Z" fill="#8495A3"/>
<path d="M285.937 114.479C285.937 109.807 283.051 104.31 279.478 102.248C277.966 101.286 276.454 101.286 275.355 101.836L272.469 103.485L280.714 121.351L283.738 119.702C285.25 118.74 286.074 116.953 285.937 114.479Z" fill="#476175"/>
<path d="M283.188 115.991C283.188 120.664 280.302 122.863 276.729 120.801C273.156 118.74 270.27 113.242 270.27 108.57C270.27 103.76 273.156 101.698 276.729 103.76C280.302 105.684 283.188 111.181 283.188 115.991Z" fill="#C9D1D7"/>
<path d="M365.646 117.09C365.646 107.745 360.012 97.0257 353.003 92.9028C349.979 91.1162 347.093 90.9788 344.894 92.0782L339.122 95.3765L355.476 130.559L361.523 127.26C364.135 125.611 365.784 122.175 365.646 117.09Z" fill="#476175"/>
<path d="M360.286 120.114C360.286 129.459 354.652 133.72 347.643 129.597C340.634 125.611 334.999 114.754 334.999 105.409C334.999 96.0637 340.634 91.8034 347.643 95.9263C354.652 99.9117 360.286 110.769 360.286 120.114Z" fill="#8495A3"/>
<path d="M353.14 116.678C353.14 112.006 350.254 106.508 346.681 104.447C345.169 103.485 343.657 103.485 342.558 104.035L339.672 105.684L347.918 123.55L350.941 121.901C352.315 121.076 353.14 119.152 353.14 116.678Z" fill="#476175"/>
<path d="M350.391 118.19C350.391 122.863 347.505 125.061 343.932 123C340.359 120.939 337.473 115.441 337.473 110.769C337.473 105.959 340.359 103.897 343.932 105.959C347.505 108.02 350.391 113.517 350.391 118.19Z" fill="#C9D1D7"/>
<path d="M385.848 115.304C385.299 118.877 385.986 121.626 387.772 123.137L438.759 164.229L456.762 142.24L403.852 99.4994C402.34 98.4 400.279 98.2626 397.942 99.0872C392.308 101.423 386.948 108.57 385.848 115.304Z" fill="#F5F7F8"/>
<path d="M450.028 150.486L438.759 164.229L387.772 123C386.123 121.488 385.299 118.877 385.848 115.166C386.536 111.181 388.597 107.058 391.346 103.897L450.028 150.486Z" fill="#C1CAD1"/>
<path d="M447.142 163.954C441.095 167.115 436.423 164.916 436.56 159.007C436.835 153.097 441.783 145.676 447.829 142.515C453.876 139.354 458.549 141.553 458.412 147.463C458.274 153.372 453.189 160.656 447.142 163.954Z" fill="#8194EC"/>
<path d="M450.99 197.625L445.081 234.456L446.73 238.029L445.768 237.204L442.47 232.257L448.242 195.563L450.99 197.625Z" fill="#E6E9EC"/>
<path d="M455.8 190.753L458.412 192.815L450.99 197.625L448.379 195.563L455.8 190.753Z" fill="#C1D1FF"/>
<path d="M458.412 192.815L465.833 189.928L463.222 187.592L455.938 190.616L458.412 192.815Z" fill="#C5D4FF"/>
<path d="M452.502 231.57L454.014 235.143L446.593 238.029L444.943 234.456L452.502 231.57Z" fill="#B7BFC2"/>
<path d="M458.412 192.815L465.833 189.928L458.412 194.739L450.99 197.625L458.412 192.815Z" fill="#A4BBFF"/>
<path d="M458.412 194.739L452.64 231.432L445.081 234.318L450.99 197.487L458.412 194.739Z" fill="#9FACB7"/>
<path d="M461.298 195.151L468.719 192.265L465.833 189.791L458.412 192.815L461.298 195.151Z" fill="#C5D4FF"/>
<path d="M461.298 195.151L464.321 208.482L461.435 206.145L458.412 192.952L461.298 195.151Z" fill="#C1D1FF"/>
<path d="M459.099 241.19L453.602 243.251L452.914 242.702L455.938 239.816L461.298 206.145L464.184 208.482L459.099 241.19Z" fill="#E6E9EC"/>
<path d="M461.298 195.151L468.719 192.265L471.742 205.596L464.321 208.482L461.298 195.151Z" fill="#A4BBFF"/>
<path d="M471.742 205.596L466.52 238.304L458.961 241.19L464.184 208.482L471.742 205.596Z" fill="#9FACB7"/>
<path d="M482.874 148.287L436.01 197.212L423.092 187.042C419.931 184.844 417.87 180.996 418.557 176.598L420.893 162.03C422.13 154.472 427.215 148.15 434.224 145.539L458.824 136.193C462.672 134.682 466.657 135.644 469.406 137.98L482.874 148.287Z" fill="#F5F7F8"/>
<path d="M466.383 184.569L469.956 161.893L456.213 167.253L452.502 189.928L447.005 191.99L446.043 197.899L470.643 188.829L471.605 182.37L466.383 184.569Z" fill="#8495A3"/>
<path d="M448.654 195.563C448.104 199.274 452.914 203.122 459.511 204.084C466.108 205.046 472.017 202.984 472.567 199.274C473.117 195.563 468.307 191.715 461.71 190.753C455.113 189.791 449.204 191.853 448.654 195.563Z" fill="#FF182B"/>
<path d="M473.941 183.607C471.33 181.683 467.619 180.308 463.497 179.621C459.374 178.934 455.526 179.209 452.365 180.171L446.318 181.683L443.157 201.61C442.332 206.695 449.066 212.055 458.137 213.429C467.207 214.941 475.316 211.917 476.14 206.832L479.301 186.905L473.941 183.607Z" fill="#476175"/>
<path d="M479.164 186.905C478.339 191.99 470.368 194.876 461.16 193.502C457.587 192.952 454.289 191.715 451.815 190.203C451.54 190.066 451.265 189.928 450.99 189.791C450.715 189.516 450.303 189.379 450.028 189.104C449.616 188.829 449.204 188.417 448.791 188.142C448.242 187.592 447.829 187.18 447.417 186.63C447.142 186.355 447.005 185.943 446.867 185.668C446.73 185.393 446.593 185.118 446.455 184.844V184.706C446.318 184.431 446.318 184.156 446.18 183.882C446.043 183.332 446.043 182.645 446.043 181.958C446.043 181.683 446.18 181.27 446.318 180.996C446.318 180.858 446.455 180.721 446.455 180.446C446.593 180.171 446.73 179.896 446.867 179.759C447.005 179.484 447.28 179.209 447.555 178.934C447.692 178.797 447.692 178.659 447.829 178.659C448.104 178.384 448.379 178.109 448.654 177.972C450.166 176.873 452.227 176.048 454.564 175.498C457.312 174.949 460.473 174.949 463.909 175.361C473.254 176.46 479.988 181.82 479.164 186.905Z" fill="#9FACB7"/>
<path d="M451.815 190.203C451.54 190.066 451.265 189.929 450.99 189.791C451.403 189.929 451.54 190.066 451.815 190.203Z" fill="#FF182B"/>
<path d="M474.491 181.958C474.903 179.209 474.491 176.46 473.666 173.849C473.391 173.162 473.117 172.337 472.567 171.513C470.505 167.94 465.97 166.428 462.122 167.94C460.198 168.764 458.274 169.451 457.037 169.864L465.283 189.791L473.804 186.493L474.491 181.958Z" fill="#E6E9EC"/>
<path d="M465.97 185.256C466.795 180.171 464.596 173.849 461.16 171.101C457.724 168.352 454.289 170.139 453.464 175.223C453.464 175.361 453.464 175.361 453.464 175.498L452.914 178.934L452.777 179.896L458.686 184.706C458.686 184.706 458.961 184.844 458.961 184.981C459.099 185.118 459.099 185.118 459.236 185.118L465.146 189.928L465.97 185.256Z" fill="#C1CAD1"/>
<path d="M454.289 174.811L435.598 197.487L422.68 187.317C419.519 185.118 417.457 181.27 418.282 176.873L420.618 162.305C421.305 158.32 422.955 154.746 425.566 151.723L427.627 153.647L454.289 174.811Z" fill="#B7BFC2"/>
<path d="M434.361 172.75L432.025 187.317C431.063 193.639 435.736 199.136 441.508 199.549L443.294 198.999L444.119 193.777L452.227 190.478L455.938 166.978L469.681 161.618L468.719 168.077C470.093 168.764 471.467 169.864 472.155 171.375C472.567 172.2 472.979 173.025 473.254 173.712C473.804 175.361 474.216 177.01 474.216 178.797C476.415 180.308 477.927 182.095 478.614 183.882C481.5 180.858 483.424 177.01 484.111 172.75L486.447 158.182C487.684 150.074 479.851 143.615 472.155 146.501L447.555 155.983C440.683 158.869 435.598 165.191 434.361 172.75Z" fill="#C1CAD1"/>
<path d="M471.055 169.864L464.046 164.092L456.075 167.115L455.526 170.688L456.075 170.276L457.724 169.726L471.055 169.864Z" fill="#E6E9EC"/>
<path d="M460.748 170.963L456.075 167.253L453.876 180.858L460.748 170.963Z" fill="#C1CAD1"/>
<path d="M298.58 201.473C298.58 197.075 295.832 191.99 292.533 189.928C291.022 189.104 289.785 188.966 288.685 189.516L285.937 191.028L293.633 207.657L296.519 206.145C297.756 205.458 298.58 203.809 298.58 201.473Z" fill="#476175"/>
<path d="M295.969 202.847C295.969 207.245 293.221 209.306 289.922 207.382C286.624 205.458 283.875 200.373 283.875 195.838C283.875 191.303 286.624 189.379 289.922 191.303C293.221 193.227 295.969 198.449 295.969 202.847Z" fill="#C9D1D7"/>
<path opacity="0.64" d="M354.24 476.608L313.423 452.008L339.397 436.478L380.214 460.941L354.24 476.608Z" fill="#D1BFF8"/>
<path opacity="0.64" d="M390.933 456.543L350.117 431.943L376.091 416.413L416.908 440.876L390.933 456.543Z" fill="#D1BFF8"/>
<path opacity="0.54" d="M371.143 459.841L330.327 435.929L356.301 420.811L397.118 444.724L371.143 459.841Z" fill="#C3DAFD"/>
<path d="M390.384 417.238L360.699 400.197L390.384 383.018L420.069 400.197L390.384 417.238Z" fill="#C3DAFD"/>
<path d="M420.069 434.279L390.384 451.458V417.238L420.069 400.059V434.279Z" fill="#86B5F8"/>
<path d="M390.384 451.321L360.836 434.279V400.059L390.521 417.238V451.321H390.384Z" fill="#267AF2"/>
<path opacity="0.44" d="M378.702 390.439L408.25 407.48V416.413L402.752 420.536V410.779L373.892 393.188L378.702 390.439Z" fill="#267AF2"/>
<path d="M353.552 437.303L323.867 420.124L353.552 403.083L383.237 420.124L353.552 437.303Z" fill="#C3DAFD"/>
<path d="M383.1 454.344L353.552 471.385V437.165L383.237 419.987V454.344H383.1Z" fill="#86B5F8"/>
<path d="M353.552 471.385L323.867 454.344V420.124L353.552 437.303V471.385Z" fill="#267AF2"/>
<path opacity="0.44" d="M340.497 410.366L370.181 427.408V436.341L364.684 440.464V430.706L335.824 413.115L340.497 410.366Z" fill="#267AF2"/>
<path d="M367.433 392.913L337.748 375.734L367.433 358.693L397.118 375.872L367.433 392.913Z" fill="#C3DAFD"/>
<path d="M397.118 409.954L367.433 426.996V392.775L397.118 375.597V409.954Z" fill="#86B5F8"/>
<path d="M367.433 426.996L337.748 409.817V375.597L367.433 392.775V426.996Z" fill="#267AF2"/>
<path opacity="0.44" d="M357.538 364.327L387.085 381.369V390.302L381.588 394.425V384.53L352.728 366.939L357.538 364.327Z" fill="#267AF2"/>
</svg>
